<?xml version="1.0" standalone="no"?><!DOCTYPE svg PUBLIC "-//W3C//DTD SVG 1.1//EN" "http://www.w3.org/Graphics/SVG/1.1/DTD/svg11.dtd"><svg t="1620825796294" class="icon" viewBox="0 0 1024 1024" version="1.1" xmlns="http://www.w3.org/2000/svg" p-id="6906" xmlns:xlink="http://www.w3.org/1999/xlink" width="200" height="200"><defs><style type="text/css"></style></defs><path d="M512 1024c-265.92 0-512-17.28-512-142.592 0-100.096 162.112-212.8 361.472-251.264 17.344-4.032 31.808-18.176 37.376-36.608 6.016-20.288 0-41.6-16.32-58.624-0.576-0.64-1.216-1.28-1.728-1.92-63.04-62.72-103.744-167.104-103.744-267.264 0-156.48 96.576-265.728 234.944-265.728 138.304 0 234.944 109.248 234.944 265.728 0 101.888-41.984 207.936-106.944 270.336-15.424 16.256-21.184 37.376-15.232 57.472 5.376 18.24 19.84 32.32 37.568 36.608 198.976 38.144 361.664 150.912 361.664 251.264 0 125.312-246.08 142.592-512 142.592l0 0z" p-id="6907"></path></svg>